<?xml version="1.0" encoding="utf-8"?>
<!-- Generator: Adobe Illustrator 16.0.0, SVG Export Plug-In . SVG Version: 6.00 Build 0)  -->
<!DOCTYPE svg PUBLIC "-//W3C//DTD SVG 1.1//EN" "http://www.w3.org/Graphics/SVG/1.1/DTD/svg11.dtd">
<svg version="1.1" id="Layer_1" xmlns="http://www.w3.org/2000/svg" xmlns:xlink="http://www.w3.org/1999/xlink" x="0px" y="0px"
	 width="24px" height="24px" viewBox="0 0 24 24" enable-background="new 0 0 24 24" xml:space="preserve">
<path d="M17.997,18H6.002L6,17.377c0-1.259,0.1-1.986,1.588-2.33c1.684-0.389,3.344-0.736,2.545-2.209C7.767,8.475,9.459,6,11.999,6
	c2.491,0,4.226,2.383,1.866,6.839c-0.775,1.464,0.826,1.812,2.545,2.209c1.49,0.345,1.589,1.072,1.589,2.333L17.997,18z
	 M22.809,15.786c-1.291-0.298-2.49-0.56-1.91-1.657C22.668,10.787,21.368,9,19.499,9c-1.265,0-2.248,0.817-2.248,2.324
	c0,3.902,2.269,1.77,2.246,6.676h4.501L24,17.537C24,16.591,23.926,16.044,22.809,15.786z M0.002,18h4.501
	c-0.021-4.906,2.246-2.771,2.246-6.676C6.749,9.817,5.766,9,4.501,9c-1.869,0-3.169,1.787-1.399,5.129
	c0.581,1.1-0.619,1.359-1.909,1.657C0.074,16.044,0,16.591,0,17.537L0.002,18z"/>
</svg>
