<?xml version="1.0" encoding="utf-8"?>
<!-- Generator: Adobe Illustrator 16.0.0, SVG Export Plug-In . SVG Version: 6.00 Build 0)  -->
<!DOCTYPE svg PUBLIC "-//W3C//DTD SVG 1.1//EN" "http://www.w3.org/Graphics/SVG/1.1/DTD/svg11.dtd">
<svg version="1.1" id="Layer_1" xmlns="http://www.w3.org/2000/svg" xmlns:xlink="http://www.w3.org/1999/xlink" x="0px" y="0px"
	 width="24px" height="24px" viewBox="0 0 24 24" enable-background="new 0 0 24 24" xml:space="preserve">
<path d="M6,22V6h16v7.543C22,17.65,16,16,16,16s1.518,6-2.639,6H6z M24,14.386V4H4v20h10.189C17.352,24,24,16.777,24,14.386z M14,16
	H9v-1h5V16z M19,12H9v1h10V12z M19,9H9v1h10V9z M22,3H3v19H2V2h20V3z M20,1H1v19H0V0h20V1z"/>
</svg>
