<?xml version="1.0" encoding="utf-8"?>
<!-- Generator: Adobe Illustrator 16.0.0, SVG Export Plug-In . SVG Version: 6.00 Build 0)  -->
<!DOCTYPE svg PUBLIC "-//W3C//DTD SVG 1.1//EN" "http://www.w3.org/Graphics/SVG/1.1/DTD/svg11.dtd">
<svg version="1.1" id="Layer_1" xmlns="http://www.w3.org/2000/svg" xmlns:xlink="http://www.w3.org/1999/xlink" x="0px" y="0px"
	 width="24px" height="24px" viewBox="0 0 24 24" enable-background="new 0 0 24 24" xml:space="preserve">
<path d="M24,14.188V9.813c-2.148-0.766-2.727-0.802-3.027-1.529c-0.303-0.729,0.084-1.169,1.06-3.223l-3.093-3.093
	c-2.026,0.963-2.488,1.364-3.225,1.059C14.988,2.725,14.947,2.138,14.188,0H9.813c-0.764,2.144-0.8,2.725-1.529,3.027
	c-0.752,0.313-1.203-0.1-3.223-1.059L1.968,5.061C2.945,7.116,3.33,7.554,3.027,8.285C2.725,9.012,2.146,9.049,0,9.813v4.375
	c2.139,0.761,2.725,0.801,3.027,1.528c0.304,0.734-0.081,1.167-1.059,3.224l3.093,3.093c1.999-0.95,2.47-1.373,3.223-1.06
	C9.012,21.275,9.048,21.854,9.813,24h4.375c0.758-2.131,0.799-2.723,1.537-3.031c0.744-0.308,1.186,0.1,3.215,1.062l3.093-3.094
	c-0.976-2.049-1.362-2.492-1.06-3.223C21.273,14.989,21.854,14.952,24,14.188z M19.125,14.951c-0.577,1.394-0.068,2.458,0.488,3.578
	l-1.084,1.084c-1.094-0.543-2.161-1.076-3.573-0.49c-1.396,0.581-1.79,1.693-2.188,2.877h-1.534
	c-0.398-1.186-0.791-2.297-2.183-2.875c-1.419-0.588-2.507-0.045-3.579,0.488l-1.083-1.084c0.557-1.118,1.066-2.18,0.487-3.58
	C4.297,13.559,3.185,13.165,2,12.768v-1.534c1.185-0.398,2.297-0.791,2.875-2.184c0.578-1.394,0.068-2.459-0.488-3.579l1.084-1.084
	c1.082,0.538,2.162,1.077,3.58,0.488c1.392-0.577,1.785-1.69,2.183-2.875h1.534c0.398,1.185,0.793,2.297,2.185,2.875
	c1.419,0.588,2.506,0.045,3.579-0.488l1.084,1.084c-0.557,1.121-1.065,2.187-0.488,3.58c0.577,1.391,1.689,1.784,2.875,2.183v1.534
	C20.814,13.166,19.7,13.559,19.125,14.951z M12,9c1.654,0,3,1.346,3,3c0,1.654-1.346,3-3,3c-1.654,0-3-1.346-3-3
	C9,10.346,10.346,9,12,9z M12,7c-2.762,0-5,2.238-5,5c0,2.762,2.238,5,5,5c2.762,0,5-2.238,5-5C17,9.238,14.762,7,12,7z"/>
</svg>
